<?xml version="1.0"?>
<svg width="500" height="500" xmlns="http://www.w3.org/2000/svg" xmlns:svg="http://www.w3.org/2000/svg" enable-background="new 0 0 500 500" version="1.1" xml:space="preserve">
 <g class="layer">
  <title>Layer 1</title>
  <path d="m293,501c-96.33,0 -192.17,-0.02 -288,0.1c-3.42,0 -4.1,-0.68 -4.09,-4.1c0.1,-164 0.1,-328 0,-492c-0.01,-3.42 0.67,-4.1 4.09,-4.09c164,0.1 328,0.1 492,0c3.42,-0.01 4.1,0.67 4.09,4.09c-0.1,164 -0.1,328 0,492c0.01,3.42 -0.66,4.1 -4.09,4.1c-67.83,-0.13 -135.67,-0.1 -204,-0.1z" fill="none" id="svg_1" opacity="1"/>
  <path d="m319.87,67.51c1.84,-1.85 4.06,-0.53 5.85,0.08c19.51,6.65 38.55,14.38 55.62,26.21c21.59,14.94 38.21,34.14 49.4,57.97c9.59,20.44 15.11,41.92 17.46,64.37c2.16,20.56 3.28,41.11 1.86,61.73c-1.5,21.72 -5.1,42.96 -12.83,63.52c-6.51,17.29 -15.42,33.05 -27,47.27c-11.06,13.6 -24.37,24.74 -39.28,34.03c-18.53,11.53 -38.8,18.6 -59.75,23.96c-14.92,3.82 -14.98,3.69 -14.98,-11.5c-0.02,-122.13 -0.01,-244.27 -0.08,-366.4c0,-3.82 0.08,-5.55 4.63,-3.18c7.44,3.87 13.39,9.36 18.34,15.83c8.6,11.25 14.73,23.8 16.29,38.03c0.98,8.94 -0.89,17.88 -2.07,26.73c-1.61,12.03 -2.69,24.12 -3.36,36.19c-1.36,24.77 -2.41,49.56 -1.87,74.38c0.55,25.48 0.84,50.96 1.83,76.42c0.64,16.59 1.73,33.19 3.7,49.71c0.15,1.31 0.77,2.58 0.82,3.89c0.12,2.95 1.45,2.32 3.15,1.29c8.12,-4.94 15.78,-10.52 22.6,-17.1c10.42,-10.05 19.6,-21.11 26.84,-33.77c9.68,-16.92 16.21,-34.89 18.9,-54.19c4.1,-29.44 2.39,-58.69 -4.52,-87.5c-5.93,-24.74 -18.51,-45.63 -38.88,-61.47c-2.75,-2.13 -5.35,-4.56 -8.44,-6.07c-5.48,-2.67 -7.62,-7 -8.64,-12.8c-3.27,-18.49 -11.47,-34.49 -25.59,-47.63z" fill="#FCFCFC" id="svg_2" opacity="1"/>
  <path d="m84.24,314.25c-6.64,-16.29 -9.48,-33.13 -11.21,-50.21c-0.32,-3.12 -0.47,-6.27 -0.79,-9.39c-0.26,-2.58 0.72,-3.78 3.37,-3.42c0.33,0.05 0.66,0.05 0.99,0.03c2.93,-0.22 7.33,1.74 8.44,-0.52c1.32,-2.69 -1.86,-6.03 -3.43,-8.88c-3.55,-6.42 -9.08,-11.38 -13.3,-17.32c-1.37,-1.94 -2.03,-1.2 -3.17,0.25c-8.59,10.95 -17.26,21.84 -26.16,32.98c-0.87,0.81 -1.62,0.71 -2.65,0.44c-8.36,-4.39 -16.43,-8.56 -25.38,-13.2c15.83,-8.32 30.83,-16.21 45.84,-24.11c-0.09,-0.35 -0.18,-0.69 -0.27,-1.04c-4.5,0.95 -9.01,1.9 -13.94,2.83c-0.9,-0.57 -1.12,-1.22 -0.86,-2.44c6.62,-4.98 13.22,-9.21 20.51,-12.95c14.64,-0.62 28.93,-0.14 43.19,-0.31c-13.66,-0.22 -27.32,0.51 -41.31,-0.69c1.9,-1.82 4.16,-3.35 6.69,-5.08c0.62,-0.37 0.72,-0.64 0.39,-1.07c-6.32,-0.56 -11.91,2.04 -17.8,2.82c-1.15,0.16 -2.76,1.27 -3.39,-0.63c-0.48,-1.45 1.04,-1.95 1.96,-2.45c4.94,-2.67 8.88,-6.95 14.69,-8.82c14.62,-0.09 28.89,-0.04 40.73,-0.08c-11.33,-0.35 -25.1,0.58 -39.19,-0.71c7.99,-6.81 17.22,-12 25.97,-17.89c7.01,-4.72 14.24,-9.09 21.32,-13.7c1.05,-0.68 2.62,-1.52 2.21,-3c-0.4,-1.49 -2.2,-1.15 -3.41,-1.34c-6.34,-1.02 -12.7,-1.92 -20.01,-3.01c8.5,-7.87 17.43,-11.14 27.92,-10.82c22.99,0.71 31.63,19.11 27.53,39.68c-1.43,7.16 -3.32,14.22 -7.33,20.83c-4.54,0.82 -8.82,0.21 -12.44,0.48c-1.29,0.16 -0.81,0.68 -0.72,0.64c3.24,-1.29 6.64,-0.35 10.37,-0.63c0.99,0.01 1.47,0.23 1.98,1.07c-0.61,4.96 -3.31,8.78 -5.06,13.28c-0.61,0.34 -0.9,0.52 -1.34,0.94c-0.18,0.18 0.03,0.28 0,0.39c-4.16,0.43 -8.27,0.29 -11.45,0.24c2.85,0.3 6.68,-0.07 10.91,0.3c-1.63,9.24 -6.19,17.27 -9.61,26.42c-6.9,-6.13 -13.19,-11.71 -19.49,-17.3c-1.73,-1.54 -13.71,-2.57 -15.56,-1.31c-0.26,0.18 -0.48,0.44 -0.65,0.7c-3.83,5.66 -0.59,21.42 5.18,24.89c0.78,0.47 1.9,0.51 2.86,0.53c26.91,0.7 53.81,1.37 81.18,2.16c1.01,0.74 1.16,1.46 0.69,2.56c-4.27,0.47 -8.29,0.64 -12.77,0.73c-1.29,-0.11 -2.13,-0.16 -3.2,0.34c-7.63,0.68 -14.98,1.2 -22.79,1.66c-1.01,-0.1 -1.53,-0.03 -2.25,0.38c-9.25,0.64 -18.27,1.14 -27.75,1.59c-0.92,-0.07 -1.37,-0.05 -2.15,0.05c-0.82,0.16 -1.3,0.35 -1.78,0.37c-11.86,0.46 -10.86,-0.72 -8.55,10.66c4.89,24.02 13.06,46.78 27.34,67.03c12.47,17.69 28.64,30.76 48.78,38.59c8.3,3.23 17.2,4.6 26.39,6.13c0.88,-0.31 1.26,-0.75 1.46,-1.63c1.43,-18.76 3.04,-37.22 4.16,-55.7c1.16,-19.21 2.56,-38.43 2.54,-58.14c0.52,-14.82 0.31,-29.19 0.21,-44.01c-0.51,-12.71 -0.88,-24.97 -1.43,-37.22c-0.37,-8.12 -1,-16.22 -1.47,-24.78c0.03,-0.9 0,-1.36 -0.09,-2.16c-1.05,-12.66 -2.06,-24.99 -3.07,-37.76c0.21,-1.57 0.19,-2.71 0.16,-4.19c3.05,-24.21 13.86,-42.81 36.64,-53.43c0.58,0.31 0.81,0.57 1.28,0.96c0.32,1.3 0.53,2.45 0.53,3.6c-0.01,125.54 -0.03,251.08 -0.18,377.07c-0.49,0.76 -0.75,1.14 -1.16,1.82c-32.27,-3.94 -60.71,-16.33 -85.75,-36.7c-23.76,-19.33 -40.1,-43.76 -51.04,-72.18c-3.63,-9.44 -6.51,-19.05 -9.08,-29.17c-0.12,-0.81 -0.24,-1.25 -0.5,-1.99c-3.18,-13.88 -4.73,-27.69 -6.79,-41.41c-0.19,-1.27 0.91,-3.35 -1.59,-3.42c-1.95,-0.05 -2.96,1.52 -3.5,3.11c-1.88,5.48 -1.89,11.14 -0.98,16.77c1.62,9.96 3.43,19.88 5.16,30.23c-0.42,0.77 -0.9,0.92 -1.78,0.66z" fill="#FCFCFC" id="svg_3" opacity="1"/>
  <path d="m262.63,152c0,94.67 0.02,188.83 -0.07,283c0,4.57 0.64,8.61 4.17,11.74c1.12,0.99 1.73,2.07 1.23,3.49c-0.54,1.54 -1.96,0.92 -3.02,0.98c-14.21,0.79 -14.21,0.78 -14.21,-13.24c0,-123.84 -0.01,-247.67 0.05,-371.5c0,-2.01 -1.31,-4.94 1.05,-5.93c2.98,-1.24 6.4,-1.72 9.66,-1.86c1.73,-0.08 1.1,2.11 1.11,3.32c0.05,8.5 0.01,17 0.01,25.5c0.01,21.33 0.01,42.67 0.02,64.5z" fill="#F5F5F5" id="svg_4" opacity="1"/>
  <path d="m286.32,311c0,45.16 0.01,89.82 -0.06,134.49c-0.01,1.71 1.3,4.14 -1.65,5.05c-2.77,0.85 -5.7,1.29 -8.33,0.28c-1.74,-0.67 -0.82,-2.99 -0.83,-4.56c-0.1,-30.99 -0.12,-61.99 -0.22,-92.98c-0.13,-39.83 -0.37,-79.65 -0.48,-119.47c-0.14,-52.66 -0.2,-105.31 -0.29,-157.97c0,-4.73 -0.05,-9.38 -4.49,-12.51c-1.3,-0.92 -1.12,-2.41 -0.89,-3.68c0.34,-1.93 2.07,-1.41 3.25,-1.31c3.8,0.3 7.59,0.73 11.37,1.24c1.89,0.26 2.91,1.36 2.64,3.45c-0.15,1.15 -0.02,2.33 -0.02,3.5c0,81.32 0,162.65 0,244.47z" fill="#F5F5F5" id="svg_5" opacity="1" transform="matrix(1 0 0 1 0 0)"/>
  <path d="m449.39,334.21c3.46,-13.89 6.34,-27.75 8.5,-41.82c2.66,-17.37 2.9,-34.77 1.93,-52.2c-1.11,-19.84 -3.86,-39.47 -10.77,-58.29c-0.33,-0.88 -1.13,-2.11 0.8,-4.44c12.71,24.97 17.42,50.83 17.89,77.92c0.47,27.36 -5.63,53.17 -16.49,78.37c-0.62,0.59 -1.05,0.74 -1.86,0.46z" fill="#ECECEC" id="svg_6" opacity="1"/>
  <path d="m67.59,190.01c15.73,-0.02 31.21,-0.02 46.68,-0.02c-0.01,0.54 -0.02,1.09 -0.02,1.63c-15.56,0 -31.12,0 -46.96,-0.31c-0.18,-0.63 -0.08,-0.96 0.3,-1.3z" fill="none" id="svg_7" opacity="1" transform="matrix(1 0 0 1 0 0)"/>
  <path d="m63.5,205.98c15.35,0.04 30.45,0.06 46.01,0.05c0.86,0.35 1.02,0.81 0.75,1.67c-15.73,0.23 -31.26,0.14 -47.23,-0.2c-0.22,-0.67 0,-1.11 0.47,-1.52z" fill="none" id="svg_8" opacity="1" transform="matrix(1 0 0 1 0 0)"/>
  <path d="m208.67,224.44c1.46,0.2 1.33,1.4 1.33,2.56c0,12.92 0,25.84 -0.03,38.76c0,0.61 -0.35,1.23 -0.84,2.04c-0.41,-14.17 -0.51,-28.54 -0.46,-43.36z" fill="#FCFCFC" id="svg_9" opacity="1"/>
  <path d="m83.92,314.43c0.46,-0.39 0.93,-0.39 1.75,-0.42c2.34,3.69 3.06,7.77 3.78,11.92c-3.21,-3.04 -4.02,-7.25 -5.53,-11.5z" fill="#C6C5C5" id="svg_10" opacity="1"/>
  <path d="m179.41,256.68c-0.41,-0.68 -0.41,-1.36 -0.41,-2.38c4.26,-0.62 8.56,-1.23 12.6,0.89c-3.9,1.14 -7.96,0.3 -12.19,1.49z" fill="#FCFCFC" id="svg_11" opacity="1"/>
  <path d="m141.27,202.36c-4.69,-0.03 -9.14,-0.03 -13.6,-0.03c0,-0.43 0,-0.86 -0.01,-1.3c4.5,0 9,0 13.97,0.1c0.46,0.09 0.53,0.57 0.4,0.78c-0.12,0.21 -0.52,0.48 -0.76,0.45z" fill="none" id="svg_12" opacity="1" transform="matrix(1 0 0 1 0 0)"/>
  <path d="m448.85,334.27c0.66,-0.25 1.09,-0.25 1.83,-0.25c-0.27,1.31 -0.84,2.66 -1.46,3.97c-0.27,0.57 -0.65,1.08 -0.98,1.61c-0.3,-0.24 -0.61,-0.48 -0.9,-0.75c-0.11,-0.1 -0.23,-0.25 -0.25,-0.39c-0.28,-1.61 1.22,-2.54 1.76,-4.19z" fill="#C7C6C6" id="svg_13" opacity="1"/>
  <path d="m135.2,217.78c-4.24,0.46 -8.32,0.55 -13.52,-0.17c4.9,-1.18 8.75,-0.36 13.01,-0.43c0.46,0.13 0.64,0.47 0.51,0.6z" fill="none" id="svg_14" opacity="1"/>
  <path d="m41.58,219.87c0.38,0.54 0.43,1.19 0.53,2.32c-1.54,0.44 -3.05,2.5 -4.97,0.44c1.4,-0.9 2.75,-1.78 4.44,-2.76z" fill="#FCFCFC" id="svg_15" opacity="1"/>
  <path d="m447.56,175.26c-1.41,-1.18 0.27,-2.53 -0.73,-3.5c0.69,0.89 1.39,1.78 2.06,2.98c-0.3,0.61 -0.66,0.75 -1.33,0.52z" fill="#BDBCBB" id="svg_16" opacity="1"/>
  <path d="m202.71,118.2c1.6,0.87 1.52,2.13 0.4,3.67c-1.5,-0.91 -1.01,-2.19 -0.4,-3.67z" fill="#FCFCFC" id="svg_17" opacity="1"/>
  <path d="m163.31,257.68c0.08,-1.66 0.97,-2 2.53,-0.89c-0.62,0.48 -1.42,0.72 -2.53,0.89z" fill="#FCFCFC" id="svg_18" opacity="1"/>
  <path d="m70.99,200.32c0.25,-1 0.18,-2.55 1.52,-1.51c0.91,0.7 0.24,1.66 -1.11,2.15c-0.32,0.06 -0.38,-0.41 -0.41,-0.64z" fill="#FBFBFB" id="svg_19" opacity="1"/>
  <path d="m138.27,259.7c-0.04,-0.98 0.21,-1.87 1.61,-0.87c-0.35,0.46 -0.84,0.7 -1.61,0.87z" fill="#FCFCFC" id="svg_20" opacity="1"/>
  <path d="m108.23,261.34c0.13,-1.03 0.62,-1.54 1.66,-0.52c-0.39,0.36 -0.9,0.51 -1.66,0.52z" fill="#FCFCFC" id="svg_21" opacity="1"/>
  <path d="m93.48,308.26c0.97,-0.04 1.67,0.28 0.92,1.51c-0.47,-0.31 -0.75,-0.78 -0.92,-1.51z" fill="#FCFCFC" id="svg_22" opacity="1"/>
  <path d="m201.8,382.2c1.31,0.77 0.97,1.37 -0.6,1.75c-0.07,-0.5 0.16,-1.03 0.6,-1.75z" fill="#FCFCFC" id="svg_23" opacity="1"/>
  <path d="m205.7,160.13c0.87,0.2 1.32,0.69 0.54,1.7c-0.37,-0.4 -0.52,-0.96 -0.54,-1.7z" fill="#FCFCFC" id="svg_24" opacity="1"/>
  <path d="m447.33,175.51c0.33,-0.42 0.68,-0.41 1.29,-0.43c0.46,0.81 1.52,1.87 0.08,2.4c-1.14,0.42 -1.1,-0.83 -1.37,-1.97z" fill="#ECECEC" id="svg_25" opacity="1"/>
  <path d="m36.16,258.27c0.54,-0.28 1.21,-0.27 2.22,-0.27c-0.2,1.39 -1.13,1.03 -2.22,0.27z" fill="#FCFCFC" id="svg_26" opacity="1"/>
  <path d="m240.09,448.77c-0.03,-0.59 0.2,-1 0.73,-1.59c0.68,0.71 0.62,1.44 -0.73,1.59z" fill="#FCFCFC" id="svg_27" opacity="1"/>
  <path d="m319.72,67.21c-0.18,-0.31 -0.4,-0.59 -0.62,-0.88c0.33,0.21 0.67,0.41 0.75,0.78c-0.25,0.16 -0.17,0.13 -0.13,0.1z" fill="#FCFCFC" id="svg_28" opacity="1"/>
  <path d="m135.3,217.04c-0.06,-0.3 0.18,-0.56 0.68,-0.89c0.05,0.27 -0.16,0.6 -0.68,0.89z" fill="#FBFBFB" id="svg_29" opacity="1"/>
  <path d="m241.18,65.62c-0.36,0.19 -0.65,-0.01 -1.07,-0.45c0.41,-0.63 0.83,-0.53 1.07,0.45z" fill="#FCFCFC" id="svg_30" opacity="1"/>
  <path d="m141.11,202.47c-0.08,-0.14 0.35,-0.3 0.58,-0.33c0.22,-0.02 0.25,0.44 0.14,0.64c-0.32,0.13 -0.5,0 -0.72,-0.31z" fill="#FBFBFB" id="svg_31" opacity="1"/>
  <path d="m128.04,145.87c2.39,0.3 3.88,1.32 3.5,3.54c-0.25,1.48 -1.25,2.74 -3.04,2.77c-1.48,0.04 -2.52,-0.82 -3.08,-2.1c-0.98,-2.25 0.44,-3.34 2.62,-4.21z" fill="none" id="svg_32" opacity="1" transform="matrix(1 0 0 1 0 0)"/>
  <path d="m123.95,199.67c-3.98,-0.61 -5.41,-4.01 -7.67,-8.36c4.04,2.28 5.56,5.43 7.67,8.36z" fill="#FBFBFB" id="svg_33" opacity="1"/>
  <path d="m114.86,208.38c0.81,1.07 2.53,1.82 1.46,2.9c-1.11,1.14 -2.01,-0.43 -2.58,-1.24c-0.52,-0.74 -1.93,-2.49 1.12,-1.66z" fill="#FCFCFC" id="svg_34" opacity="1"/>
  <path d="m119.96,215.69c-1.13,0.21 -2.22,-0.06 -2.51,-1.35c-0.05,-0.24 0.47,-0.88 0.72,-0.88c1.14,0.02 1.51,0.93 1.79,2.23z" fill="#FCFCFC" id="svg_35" opacity="1"/>
  <path d="m110.36,207.97c-0.25,-0.4 -0.21,-0.85 -0.28,-1.63c1.06,-0.03 2.67,0.13 0.28,1.63z" fill="#FCFCFC" id="svg_36" opacity="1"/>
  <path d="m58.64,220.09c-0.27,-0.26 -0.39,-0.66 -0.44,-1.06c-0.01,-0.07 0.22,-0.17 0.34,-0.26c0.09,0.4 0.18,0.79 0.1,1.32z" fill="#FCFCFC" id="svg_37" opacity="1"/>
  <path d="m120.03,215.98c0.13,0.14 0.24,0.3 0.34,0.45c-0.09,-0.04 -0.18,-0.08 -0.34,-0.25c-0.07,-0.12 -0.03,-0.17 0,-0.2z" fill="#FCFCFC" id="svg_38" opacity="1"/>
  <path d="m125.06,201.13c0.09,-0.02 0.2,0.14 0.31,0.3c-0.09,-0.04 -0.19,-0.08 -0.31,-0.3z" fill="#FBFBFB" id="svg_39" opacity="1"/>
  <path d="m124.04,199.98c0.32,0.11 0.57,0.3 0.88,0.76c0.12,0.21 0.08,0.26 0.05,0.28c-0.32,-0.11 -0.57,-0.29 -0.9,-0.74c-0.12,-0.2 -0.07,-0.27 -0.03,-0.3z" fill="#FBFBFB" id="svg_40" opacity="1"/>
 </g>
</svg>