<?xml version="1.0" encoding="utf-8"?>
<!-- Generator: Adobe Illustrator 25.4.1, SVG Export Plug-In . SVG Version: 6.00 Build 0)  -->
<svg version="1.1" id="圖層_1" xmlns="http://www.w3.org/2000/svg" xmlns:xlink="http://www.w3.org/1999/xlink" x="0px" y="0px"
	 viewBox="0 0 64 64" style="enable-background:new 0 0 64 64;" xml:space="preserve">
<style type="text/css">
	.st0{fill:#FFFFFF;}
</style>
<g>
	<path class="st0" d="M25.5,59.9c-2.5,0-4.5-2-4.5-4.5V9.2c0-2.5,2-4.5,4.5-4.5c2.5,0,4.5,2,4.5,4.5v46.2C30,57.9,28,59.9,25.5,59.9
		z M25.5,5.3c-2.2,0-3.9,1.8-3.9,3.9v46.2c0,2.2,1.8,3.9,3.9,3.9c2.2,0,3.9-1.8,3.9-3.9V9.2C29.4,7,27.6,5.3,25.5,5.3z"/>
	<path class="st0" d="M25.5,41.9c-2.5,0-4.5-2-4.5-4.5V9.2c0-2.5,2-4.5,4.5-4.5c2.5,0,4.5,2,4.5,4.5v28.1C30,39.9,28,41.9,25.5,41.9
		z M25.5,5.3c-2.2,0-3.9,1.8-3.9,3.9v28.1c0,2.2,1.8,3.9,3.9,3.9h0c2.2,0,3.9-1.8,3.9-3.9V9.2C29.4,7,27.6,5.3,25.5,5.3z"/>
	<path class="st0" d="M30.9,23.6H20c-0.2,0-0.3-0.1-0.3-0.3c0-0.2,0.1-0.3,0.3-0.3h10.9c0.2,0,0.3,0.1,0.3,0.3
		C31.2,23.5,31.1,23.6,30.9,23.6z"/>
	<path class="st0" d="M16.8,12.2C16.8,12.2,16.8,12.2,16.8,12.2l-4.6-0.8c-0.2,0-0.3-0.2-0.2-0.3l0.4-2.1c0.1-0.7,0.5-1.3,1.1-1.7
		c0.6-0.4,1.3-0.5,2-0.4c0.7,0.1,1.3,0.5,1.7,1.1c0.4,0.6,0.5,1.3,0.4,2L17.1,12c0,0.1-0.1,0.1-0.1,0.2
		C16.9,12.2,16.9,12.2,16.8,12.2z M12.6,10.9l4,0.7l0.3-1.8c0.1-0.5,0-1.1-0.3-1.5c-0.3-0.4-0.8-0.7-1.3-0.8c-0.5-0.1-1.1,0-1.5,0.3
		C13.3,8,13,8.5,12.9,9L12.6,10.9z"/>
	<path class="st0" d="M18.4,12.5C18.4,12.5,18.4,12.5,18.4,12.5l-7.8-1.4c-0.2,0-0.3-0.2-0.2-0.3c0-0.2,0.2-0.3,0.3-0.2l7.7,1.4
		c0.2,0,0.3,0.2,0.2,0.3C18.7,12.4,18.5,12.5,18.4,12.5z"/>
	<path class="st0" d="M7.3,51.3C7.3,51.3,7.3,51.3,7.3,51.3c-0.2,0-0.3-0.2-0.3-0.3l7.2-39.5c0-0.2,0.2-0.3,0.3-0.2
		c0.2,0,0.3,0.2,0.2,0.3L7.6,51.1C7.6,51.2,7.5,51.3,7.3,51.3z"/>
	<path class="st0" d="M8.8,54.8C8.8,54.8,8.7,54.8,8.8,54.8l-4-0.7c-0.2,0-0.3-0.2-0.2-0.3c0-0.2,0.2-0.3,0.3-0.2l4,0.7
		c0.2,0,0.3,0.2,0.2,0.3C9,54.7,8.9,54.8,8.8,54.8z"/>
	<path class="st0" d="M6.2,57.8C6.1,57.8,6.1,57.8,6.2,57.8c-0.2,0-0.3-0.2-0.3-0.3l0.6-3.4c0-0.2,0.2-0.3,0.3-0.2
		c0.2,0,0.3,0.2,0.2,0.3l-0.6,3.4C6.4,57.7,6.3,57.8,6.2,57.8z"/>
	<path class="st0" d="M38.1,59.9c-2.5,0-4.5-2-4.5-4.5V9.2c0-2.5,2-4.5,4.5-4.5c2.5,0,4.5,2,4.5,4.5v46.2
		C42.6,57.9,40.6,59.9,38.1,59.9z M38.1,5.3c-2.2,0-3.9,1.8-3.9,3.9v46.2c0,2.2,1.8,3.9,3.9,3.9c2.2,0,3.9-1.8,3.9-3.9V9.2
		C42,7,40.3,5.3,38.1,5.3z"/>
	<path class="st0" d="M38.1,41.9c-2.5,0-4.5-2-4.5-4.5V9.2c0-2.5,2-4.5,4.5-4.5c2.5,0,4.5,2,4.5,4.5v28.1
		C42.6,39.9,40.6,41.9,38.1,41.9z M38.1,5.3c-2.2,0-3.9,1.8-3.9,3.9v28.1c0,2.2,1.8,3.9,3.9,3.9c2.2,0,3.9-1.8,3.9-3.9V9.2
		C42,7,40.3,5.3,38.1,5.3z"/>
	<path class="st0" d="M43.5,23.6H32.6c-0.2,0-0.3-0.1-0.3-0.3c0-0.2,0.1-0.3,0.3-0.3h10.9c0.2,0,0.3,0.1,0.3,0.3
		C43.8,23.5,43.7,23.6,43.5,23.6z"/>
	<path class="st0" d="M46.7,12.2c-0.1,0-0.1,0-0.2-0.1c-0.1,0-0.1-0.1-0.1-0.2L46,9.9c-0.1-0.7,0-1.4,0.4-2c0.4-0.6,1-1,1.7-1.1
		c0.7-0.1,1.4,0,2,0.4c0.6,0.4,1,1,1.1,1.7l0.4,2.1c0,0.2-0.1,0.3-0.2,0.3L46.7,12.2C46.7,12.2,46.7,12.2,46.7,12.2z M48.6,7.4
		c-0.1,0-0.2,0-0.4,0c-0.5,0.1-1,0.4-1.3,0.8c-0.3,0.4-0.4,1-0.3,1.5l0.3,1.8l4-0.7L50.6,9c-0.1-0.5-0.4-1-0.8-1.3
		C49.4,7.5,49,7.4,48.6,7.4z"/>
	<path class="st0" d="M45.1,12.5c-0.1,0-0.3-0.1-0.3-0.2c0-0.2,0.1-0.3,0.2-0.3l7.7-1.4c0.2,0,0.3,0.1,0.3,0.2
		c0,0.2-0.1,0.3-0.2,0.3L45.1,12.5C45.2,12.5,45.2,12.5,45.1,12.5z"/>
	<path class="st0" d="M56.2,51.3c-0.1,0-0.3-0.1-0.3-0.2l-7.2-39.5c0-0.2,0.1-0.3,0.2-0.3c0.2,0,0.3,0.1,0.3,0.2L56.5,51
		C56.5,51.2,56.4,51.3,56.2,51.3C56.2,51.3,56.2,51.3,56.2,51.3z"/>
	<path class="st0" d="M54.8,54.8c-0.1,0-0.3-0.1-0.3-0.2c0-0.2,0.1-0.3,0.2-0.3l4-0.7c0.2,0,0.3,0.1,0.3,0.2c0,0.2-0.1,0.3-0.2,0.3
		L54.8,54.8C54.8,54.8,54.8,54.8,54.8,54.8z"/>
	<path class="st0" d="M57.4,57.8c-0.1,0-0.3-0.1-0.3-0.2l-0.6-3.4c0-0.2,0.1-0.3,0.2-0.3c0.2,0,0.3,0.1,0.3,0.2l0.6,3.4
		C57.7,57.7,57.6,57.8,57.4,57.8C57.4,57.8,57.4,57.8,57.4,57.8z"/>
</g>
</svg>
