<?xml version="1.0" encoding="utf-8"?>
<!-- Generator: Adobe Illustrator 25.4.1, SVG Export Plug-In . SVG Version: 6.00 Build 0)  -->
<svg version="1.1" id="圖層_1" xmlns="http://www.w3.org/2000/svg" xmlns:xlink="http://www.w3.org/1999/xlink" x="0px" y="0px"
	 viewBox="0 0 64 64" style="enable-background:new 0 0 64 64;" xml:space="preserve">
<style type="text/css">
	.st0{fill:#FFFFFF;}
</style>
<g>
	<path class="st0" d="M51.4,18.1c-3.1,0-5.6-2.5-5.6-5.6s2.5-5.6,5.6-5.6S57,9.4,57,12.5S54.5,18.1,51.4,18.1z M51.4,7.5
		c-2.8,0-5,2.3-5,5s2.3,5,5,5s5-2.3,5-5S54.1,7.5,51.4,7.5z"/>
	<path class="st0" d="M25.6,45.7c-0.1,0-0.2-0.1-0.3-0.2c-0.1-0.1,0-0.3,0.1-0.4l15.2-6.7l-9.9-7.2c-1.4-1-2.2-2.5-2.3-4.2
		c-0.1-1.7,0.6-3.3,1.9-4.5l7.2-6.5c2.1-1.9,5.3-1.9,7.5,0c0.1,0.1,0.1,0.3,0,0.4c-0.1,0.1-0.3,0.1-0.4,0c-1.9-1.7-4.8-1.7-6.7,0
		L30.7,23c-1.1,1-1.7,2.5-1.7,4c0.1,1.5,0.8,2.9,2.1,3.8l10.3,7.5c0.1,0.1,0.1,0.2,0.1,0.3s-0.1,0.2-0.2,0.2l-15.7,6.9
		C25.7,45.7,25.7,45.7,25.6,45.7z"/>
	<path class="st0" d="M49.2,59.7c-1.2,0-2.4-0.3-3.5-1L13.2,39.4c-0.1-0.1-0.2-0.3-0.1-0.4c0.1-0.1,0.3-0.2,0.4-0.1L46,58.3
		c1.8,1.1,4,1.2,6,0.3l2.7-1.3c0.1-0.1,0.3,0,0.4,0.1c0.1,0.1,0,0.3-0.1,0.4L52.2,59C51.3,59.5,50.2,59.7,49.2,59.7z"/>
	<path class="st0" d="M49.5,29.1c0,0-0.1,0-0.1,0l-9.2-3.8c-0.1,0-0.2-0.1-0.2-0.2c0-0.1,0-0.2,0.1-0.3l4.6-4.3
		c0.1-0.1,0.3-0.1,0.4,0c0.1,0.1,0.1,0.3,0,0.4l-4.2,4l8.7,3.6c0.1,0.1,0.2,0.2,0.2,0.4C49.7,29,49.6,29.1,49.5,29.1z"/>
	<path class="st0" d="M31,22c0,0-0.1,0-0.1,0l-16.8-7.7c-0.1-0.1-0.2-0.2-0.1-0.4c0.1-0.1,0.2-0.2,0.4-0.1l16.8,7.7
		c0.1,0.1,0.2,0.2,0.1,0.4C31.2,21.9,31.1,22,31,22z"/>
	<path class="st0" d="M17.5,18.8c0,0-0.1,0-0.1,0c-0.1-0.1-0.2-0.3-0.1-0.4l2.4-4.3c0.1-0.1,0.3-0.2,0.4-0.1
		c0.1,0.1,0.2,0.3,0.1,0.4l-2.4,4.3C17.7,18.7,17.6,18.8,17.5,18.8z"/>
	<path class="st0" d="M53.2,32.6c-1.1,0-2.1-0.9-2.1-2.1c0-1.1,0.9-2.1,2.1-2.1c1.1,0,2.1,0.9,2.1,2.1
		C55.2,31.7,54.3,32.6,53.2,32.6z M53.2,29.1c-0.8,0-1.5,0.7-1.5,1.5s0.7,1.5,1.5,1.5c0.8,0,1.5-0.7,1.5-1.5S54,29.1,53.2,29.1z"/>
	<path class="st0" d="M21.9,30.5c0,0-0.1,0-0.1,0l-9.5-4.3c-0.1-0.1-0.2-0.2-0.1-0.4c0.1-0.1,0.2-0.2,0.4-0.1l9.5,4.3
		c0.1,0.1,0.2,0.2,0.1,0.4C22.1,30.4,22,30.5,21.9,30.5z"/>
	<path class="st0" d="M16.5,32.4c0,0-0.1,0-0.1,0L6.9,28c-0.1-0.1-0.2-0.2-0.1-0.4c0.1-0.1,0.2-0.2,0.4-0.1l9.5,4.3
		c0.1,0.1,0.2,0.2,0.1,0.4C16.7,32.3,16.6,32.4,16.5,32.4z"/>
</g>
</svg>
