<?xml version="1.0" encoding="utf-8"?>
<!-- Generator: Adobe Illustrator 25.4.1, SVG Export Plug-In . SVG Version: 6.00 Build 0)  -->
<svg version="1.1" id="圖層_1" xmlns="http://www.w3.org/2000/svg" xmlns:xlink="http://www.w3.org/1999/xlink" x="0px" y="0px"
	 viewBox="0 0 64 64" style="enable-background:new 0 0 64 64;" xml:space="preserve">
<style type="text/css">
	.st0{fill:#FFFFFF;}
</style>
<g>
	<g>
		<path class="st0" d="M24.5,48c-0.2,0-0.3-0.1-0.3-0.3c0-2.8-1.1-5.5-3-7.4c-2.9-2.9-4.5-6.7-4.5-10.8c0-4.3,1.8-8.4,5.1-11.3
			c3.3-2.9,7.5-4.3,11.9-3.8C40.7,15.2,46.3,20.9,47,28c0.4,4.3-0.9,8.4-3.8,11.6c-2.1,2.3-3.2,5.1-3.2,8.1c0,0.2-0.1,0.3-0.3,0.3
			s-0.3-0.1-0.3-0.3c0-3.1,1.1-6,3.3-8.5c2.7-3.1,4-7,3.6-11.1c-0.7-6.8-6.1-12.3-12.9-13.1c-4.2-0.5-8.3,0.8-11.4,3.6
			c-3.1,2.8-4.9,6.7-4.9,10.9c0,3.9,1.5,7.6,4.3,10.4c2,2,3.2,4.8,3.2,7.8C24.7,47.9,24.6,48,24.5,48z"/>
		<path class="st0" d="M40.2,51.7H23.6c-0.7,0-1.2-0.6-1.2-1.2v-1.8c0-0.7,0.6-1.2,1.2-1.2h16.6c0.7,0,1.2,0.6,1.2,1.2v1.8
			C41.4,51.1,40.9,51.7,40.2,51.7z M23.6,48c-0.4,0-0.7,0.3-0.7,0.7v1.8c0,0.4,0.3,0.7,0.7,0.7h16.6c0.4,0,0.7-0.3,0.7-0.7v-1.8
			c0-0.4-0.3-0.7-0.7-0.7H23.6z"/>
		<path class="st0" d="M40.2,55.4H23.6c-0.7,0-1.3-0.6-1.3-1.3v-1.8c0-0.7,0.6-1.3,1.3-1.3h16.6c0.7,0,1.3,0.6,1.3,1.3v1.8
			C41.4,54.8,40.9,55.4,40.2,55.4z M23.6,51.7c-0.4,0-0.7,0.3-0.7,0.7v1.8c0,0.4,0.3,0.7,0.7,0.7h16.6c0.4,0,0.7-0.3,0.7-0.7v-1.8
			c0-0.4-0.3-0.7-0.7-0.7H23.6z"/>
		<path class="st0" d="M31.9,48c-0.2,0-0.3-0.1-0.3-0.3V31.3c0-0.2,0.1-0.3,0.3-0.3s0.3,0.1,0.3,0.3v16.5C32.2,47.9,32,48,31.9,48z"
			/>
		<path class="st0" d="M31.9,31.6c-1.2,0-2.2-1-2.2-2.2s1-2.2,2.2-2.2s2.2,1,2.2,2.2S33.1,31.6,31.9,31.6z M31.9,27.8
			c-0.9,0-1.6,0.7-1.6,1.6c0,0.9,0.7,1.6,1.6,1.6c0.9,0,1.6-0.7,1.6-1.6C33.5,28.5,32.8,27.8,31.9,27.8z"/>
		<path class="st0" d="M31.9,9.4c-0.2,0-0.3-0.1-0.3-0.3V4.3c0-0.2,0.1-0.3,0.3-0.3s0.3,0.1,0.3,0.3v4.8C32.2,9.3,32,9.4,31.9,9.4z"
			/>
		<path class="st0" d="M24,10.7c-0.1,0-0.2,0-0.2-0.1l-2.7-3.6C21,6.8,21,6.6,21.1,6.5c0.1-0.1,0.3-0.1,0.4,0.1l2.7,3.6
			c0.1,0.1,0.1,0.3-0.1,0.4C24.1,10.6,24,10.7,24,10.7z"/>
		<path class="st0" d="M19.3,15.2C19.3,15.2,19.2,15.2,19.3,15.2l-4.8-1.7c-0.2-0.1-0.2-0.2-0.2-0.4c0.1-0.2,0.2-0.2,0.4-0.2
			l4.7,1.7c0.2,0.1,0.2,0.2,0.2,0.4C19.5,15.1,19.4,15.2,19.3,15.2z"/>
		<path class="st0" d="M44.5,15.2c-0.1,0-0.2-0.1-0.3-0.2c-0.1-0.2,0-0.3,0.2-0.4L49,13c0.1-0.1,0.3,0,0.4,0.2
			c0.1,0.2,0,0.3-0.2,0.4L44.5,15.2C44.5,15.2,44.5,15.2,44.5,15.2z"/>
		<path class="st0" d="M39.8,10.7c-0.1,0-0.1,0-0.2-0.1c-0.1-0.1-0.2-0.3-0.1-0.4l2.7-3.6c0.1-0.1,0.3-0.2,0.4-0.1
			c0.1,0.1,0.2,0.3,0.1,0.4L40,10.5C40,10.6,39.9,10.7,39.8,10.7z"/>
	</g>
	<path class="st0" d="M31.9,59.7c-3.9,0-7-2.1-7-4.6c0-0.2,0.1-0.3,0.3-0.3c0.2,0,0.3,0.1,0.3,0.3c0,2.2,2.9,4,6.5,4
		c3.6,0,6.5-1.8,6.5-4c0-0.2,0.1-0.3,0.3-0.3s0.3,0.1,0.3,0.3C38.9,57.6,35.8,59.7,31.9,59.7z"/>
</g>
</svg>
