<?xml version="1.0" encoding="utf-8"?>
<!-- Generator: Adobe Illustrator 25.4.1, SVG Export Plug-In . SVG Version: 6.00 Build 0)  -->
<svg version="1.1" id="圖層_1" xmlns="http://www.w3.org/2000/svg" xmlns:xlink="http://www.w3.org/1999/xlink" x="0px" y="0px"
	 viewBox="0 0 64 64" style="enable-background:new 0 0 64 64;" xml:space="preserve">
<style type="text/css">
	.st0{fill:#FFFFFF;}
</style>
<g>
	<path class="st0" d="M32.8,53.2c-2.6,0-5.2-0.5-7.7-1.4c-0.1-0.1-0.2-0.2-0.2-0.4c0.1-0.1,0.2-0.2,0.4-0.2c2.4,0.9,4.9,1.3,7.5,1.3
		c11.9,0,21.5-9.7,21.5-21.5c0-11.9-9.7-21.5-21.5-21.5c-11.9,0-21.5,9.7-21.5,21.5c0,2.8,0.5,5.5,1.5,8c0.1,0.1,0,0.3-0.2,0.4
		c-0.1,0.1-0.3,0-0.4-0.2c-1-2.6-1.6-5.4-1.6-8.2C10.7,18.9,20.6,9,32.8,9C45,9,54.9,18.9,54.9,31.1C54.9,43.3,45,53.2,32.8,53.2z"
		/>
	<path class="st0" d="M18,55.6c-5.1,0-9.2-4.1-9.2-9.2s4.1-9.2,9.2-9.2c5.1,0,9.2,4.1,9.2,9.2S23.1,55.6,18,55.6z M18,37.7
		c-4.8,0-8.7,3.9-8.7,8.7c0,4.8,3.9,8.7,8.7,8.7s8.7-3.9,8.7-8.7C26.6,41.6,22.7,37.7,18,37.7z"/>
	<path class="st0" d="M40.3,37.7c-0.1,0-0.1,0-0.2-0.1l-7.5-6.3c-0.1-0.1-0.1-0.1-0.1-0.2V16.4c0-0.2,0.1-0.3,0.3-0.3
		c0.2,0,0.3,0.1,0.3,0.3V31l7.4,6.2c0.1,0.1,0.1,0.3,0,0.4C40.5,37.7,40.4,37.7,40.3,37.7z"/>
	<path class="st0" d="M17.1,50.4C17.1,50.4,17.1,50.4,17.1,50.4c-0.1,0-0.2-0.1-0.2-0.1l-2.5-3.8c-0.1-0.1-0.1-0.3,0.1-0.4
		c0.1-0.1,0.3-0.1,0.4,0.1l2.3,3.4l4.1-5.7c0.1-0.1,0.3-0.2,0.4-0.1c0.1,0.1,0.2,0.3,0.1,0.4l-4.3,6C17.3,50.4,17.2,50.4,17.1,50.4z
		"/>
</g>
</svg>
