<?xml version="1.0" encoding="utf-8"?>
<!-- Generator: Adobe Illustrator 25.4.1, SVG Export Plug-In . SVG Version: 6.00 Build 0)  -->
<svg version="1.1" id="圖層_1" xmlns="http://www.w3.org/2000/svg" xmlns:xlink="http://www.w3.org/1999/xlink" x="0px" y="0px"
	 viewBox="0 0 64 64" style="enable-background:new 0 0 64 64;" xml:space="preserve">
<style type="text/css">
	.st0{fill:#FFFFFF;}
</style>
<g>
	<path class="st0" d="M56.9,21.1C56.9,21.1,56.9,21.1,56.9,21.1L6.4,8.2C6.3,8.1,6.2,8,6.2,7.8c0-0.2,0.2-0.2,0.4-0.2L57,20.5
		c0.2,0,0.2,0.2,0.2,0.4C57.2,21,57.1,21.1,56.9,21.1z"/>
	<path class="st0" d="M31.8,24.2c-0.2,0-0.3-0.1-0.3-0.3V10.7c0-0.2,0.1-0.3,0.3-0.3c0.2,0,0.3,0.1,0.3,0.3v13.1
		C32.1,24,32,24.2,31.8,24.2z"/>
	<path class="st0" d="M46.7,57H16.1c-0.1,0-0.2-0.1-0.3-0.2L11.6,45c0,0,0-0.1,0-0.1l3.4-21c0-0.1,0.1-0.2,0.3-0.2h32.4
		c0.1,0,0.3,0.1,0.3,0.2l3.4,21c0,0,0,0.1,0,0.1L47,56.8C46.9,57,46.8,57,46.7,57z M16.4,56.5h30.1l4.2-11.6l-3.3-20.7H15.5
		l-3.3,20.7L16.4,56.5z"/>
	<path class="st0" d="M46.7,57H33.5c-0.2,0-0.3-0.1-0.3-0.3c0-0.2,0.1-0.3,0.3-0.3h13.2c0.2,0,0.3,0.1,0.3,0.3
		C47,56.9,46.9,57,46.7,57z"/>
	<path class="st0" d="M24.3,45.2H11.9c-0.2,0-0.3-0.1-0.3-0.3c0-0.2,0.1-0.3,0.3-0.3h12.4c0.2,0,0.3,0.1,0.3,0.3
		C24.5,45,24.4,45.2,24.3,45.2z"/>
	<path class="st0" d="M51,45.2H38.6c-0.2,0-0.3-0.1-0.3-0.3c0-0.2,0.1-0.3,0.3-0.3H51c0.2,0,0.3,0.1,0.3,0.3
		C51.3,45,51.1,45.2,51,45.2z"/>
	<path class="st0" d="M38.6,53.1H24.8c-0.2,0-0.3-0.1-0.3-0.3V28.4c0-0.2,0.1-0.3,0.3-0.3h13.8c0.2,0,0.3,0.1,0.3,0.3v24.4
		C38.9,53,38.7,53.1,38.6,53.1z M25.1,52.5h13.2V28.7H25.1V52.5z"/>
	<path class="st0" d="M41.4,40.4H22c-0.2,0-0.3-0.1-0.3-0.3c0-0.2,0.1-0.3,0.3-0.3h19.4c0.2,0,0.3,0.1,0.3,0.3
		C41.7,40.3,41.6,40.4,41.4,40.4z"/>
</g>
</svg>
